<svg width="393" height="400" viewBox="0 0 393 400" fill="none" xmlns="http://www.w3.org/2000/svg">
<circle cx="300.133" cy="78.2288" r="2.95203" fill="white"/>
<circle cx="306.037" cy="312.915" r="2.95203" fill="white"/>
<circle cx="93.4908" cy="113.653" r="2.95203" fill="white"/>
<circle cx="342.937" cy="135.793" r="2.95203" fill="white"/>
<circle cx="227.808" cy="126.937" r="2.95203" fill="white"/>
<circle cx="369.505" cy="202.214" r="2.95203" fill="white"/>
<circle cx="233.712" cy="357.196" r="2.95203" fill="white"/>
<circle cx="331.129" cy="352.768" r="2.95203" fill="white"/>
<circle cx="25.5941" cy="171.218" r="2.95203" fill="white"/>
<circle cx="266.184" cy="193.358" r="2.95203" fill="white"/>
<circle cx="63.9705" cy="29.5203" r="2.95203" fill="white"/>
<circle cx="72.8267" cy="237.638" r="2.95203" fill="white"/>
<circle cx="38.8781" cy="392.62" r="2.95203" fill="white"/>
<circle cx="121.535" cy="233.21" r="2.95203" fill="white"/>
<circle cx="242.568" cy="16.2362" r="2.95203" fill="white"/>
<circle cx="381.314" cy="264.207" r="2.95203" fill="white"/>
<circle cx="276.517" cy="277.491" r="2.95203" fill="white"/>
<circle cx="86.1107" cy="215.498" r="2.95203" fill="white"/>
<circle cx="154.007" cy="348.339" r="2.95203" fill="white"/>
<circle cx="314.893" cy="206.642" r="2.95203" fill="white"/>
<circle cx="252.9" cy="326.199" r="2.95203" fill="white"/>
<circle cx="180.576" cy="374.908" r="2.95203" fill="white"/>
<circle cx="201.24" cy="388.192" r="2.95203" fill="white"/>
<circle cx="390.17" cy="383.764" r="2.95203" fill="white"/>
<circle cx="49.2102" cy="7.38008" r="2.95203" fill="white"/>
<circle cx="173.196" cy="64.9446" r="2.95203" fill="white"/>
<circle cx="56.5903" cy="228.782" r="2.95203" fill="white"/>
<circle cx="146.627" cy="224.354" r="2.95203" fill="white"/>
<circle cx="80.2068" cy="47.2325" r="2.95203" fill="white"/>
<circle cx="134.819" cy="149.078" r="2.95203" fill="white"/>
<circle cx="337.033" cy="184.502" r="2.95203" fill="white"/>
<circle cx="360.65" cy="299.631" r="2.95203" fill="white"/>
<circle cx="286.849" cy="157.934" r="2.95203" fill="white"/>
<circle cx="258.805" cy="104.797" r="2.95203" fill="white"/>
<circle cx="100.871" cy="42.8045" r="2.95203" fill="white"/>
<circle cx="6.40601" cy="188.93" r="2.95203" fill="white"/>
<circle cx="19.6901" cy="308.487" r="2.95203" fill="white"/>
<circle cx="159.911" cy="259.779" r="2.95203" fill="white"/>
<circle cx="350.317" cy="25.0923" r="2.95203" fill="white"/>
<circle cx="293.491" cy="169.004" r="0.738007" fill="white"/>
<circle cx="108.989" cy="45.0185" r="0.738007" fill="white"/>
<circle cx="14.5241" cy="200" r="0.738007" fill="white"/>
<circle cx="29.284" cy="323.985" r="0.738007" fill="white"/>
<circle cx="168.03" cy="270.849" r="0.738007" fill="white"/>
<circle cx="355.483" cy="27.3063" r="0.738007" fill="white"/>
<circle cx="142.937" cy="45.0185" r="0.738007" fill="white"/>
<circle cx="-0.236114" cy="58.3026" r="0.738007" fill="white"/>
<circle cx="104.561" cy="76.0147" r="0.738007" fill="white"/>
<circle cx="247.734" cy="31.7343" r="0.738007" fill="white"/>
<circle cx="188.694" cy="200" r="0.738007" fill="white"/>
<circle cx="33.7121" cy="208.856" r="0.738007" fill="white"/>
<circle cx="42.5683" cy="323.985" r="0.738007" fill="white"/>
<circle cx="206.406" cy="275.277" r="0.738007" fill="white"/>
<circle cx="271.35" cy="93.7269" r="0.738007" fill="white"/>
<circle cx="224.118" cy="14.0222" r="0.738007" fill="white"/>
<circle cx="106.037" cy="279.705" r="0.738007" fill="white"/>
<circle cx="176.885" cy="177.86" r="0.738007" fill="white"/>
<circle cx="294.967" cy="58.3026" r="0.738007" fill="white"/>
<circle cx="354.007" cy="111.439" r="0.738007" fill="white"/>
<circle cx="113.417" cy="266.421" r="0.738007" fill="white"/>
<circle cx="190.17" cy="155.72" r="0.738007" fill="white"/>
<circle cx="309.727" cy="31.7343" r="0.738007" fill="white"/>
<circle cx="364.34" cy="93.7269" r="0.738007" fill="white"/>
<circle cx="187.218" cy="71.5867" r="0.738007" fill="white"/>
<circle cx="44.0442" cy="120.295" r="0.738007" fill="white"/>
<circle cx="13.0479" cy="31.7343" r="0.738007" fill="white"/>
<circle cx="281.683" cy="169.004" r="0.738007" fill="white"/>
<circle cx="327.439" cy="18.4502" r="0.738007" fill="white"/>
<circle cx="237.402" cy="266.421" r="0.738007" fill="white"/>
<circle cx="2.71591" cy="288.561" r="0.738007" fill="white"/>
<circle cx="185.742" cy="328.413" r="0.738007" fill="white"/>
<circle cx="249.21" cy="275.277" r="0.738007" fill="white"/>
<circle cx="52.9005" cy="151.292" r="0.738007" fill="white"/>
<circle cx="126.701" cy="372.694" r="0.738007" fill="white"/>
<circle cx="11.5717" cy="71.5867" r="0.738007" fill="white"/>
<circle cx="110.465" cy="93.7269" r="0.738007" fill="white"/>
<circle cx="262.494" cy="45.0185" r="0.738007" fill="white"/>
<circle cx="138.509" cy="93.7269" r="0.738007" fill="white"/>
<circle cx="97.1808" cy="14.0222" r="0.738007" fill="white"/>
<circle cx="365.816" cy="142.435" r="0.738007" fill="white"/>
<circle cx="320.059" cy="239.852" r="0.738007" fill="white"/>
<circle cx="196.074" cy="208.856" r="0.738007" fill="white"/>
<circle cx="60.2806" cy="217.712" r="0.738007" fill="white"/>
<circle cx="69.1366" cy="328.413" r="0.738007" fill="white"/>
<circle cx="215.262" cy="284.133" r="0.738007" fill="white"/>
<circle cx="107.513" cy="261.993" r="0.738007" fill="white"/>
<circle cx="184.266" cy="146.863" r="0.738007" fill="white"/>
<circle cx="296.443" cy="27.3063" r="0.738007" fill="white"/>
<circle cx="356.959" cy="89.2989" r="0.738007" fill="white"/>
<circle cx="128.177" cy="270.849" r="0.738007" fill="white"/>
<circle cx="1.23972" cy="270.849" r="0.738007" fill="white"/>
<circle cx="197.55" cy="169.004" r="0.738007" fill="white"/>
<circle cx="321.535" cy="45.0185" r="0.738007" fill="white"/>
<circle cx="376.148" cy="98.155" r="0.738007" fill="white"/>
<circle cx="212.31" cy="93.7269" r="0.738007" fill="white"/>
<circle cx="16" cy="84.8708" r="0.738007" fill="white"/>
<circle cx="125.225" cy="177.86" r="0.738007" fill="white"/>
<circle cx="290.539" cy="217.712" r="0.738007" fill="white"/>
<circle cx="377.624" cy="169.004" r="0.738007" fill="white"/>
<circle cx="163.601" cy="27.3063" r="0.738007" fill="white"/>
<circle cx="218.214" cy="257.565" r="0.738007" fill="white"/>
<circle cx="76.5166" cy="275.277" r="0.738007" fill="white"/>
<circle cx="114.893" cy="98.155" r="0.738007" fill="white"/>
<circle cx="272.827" cy="58.3026" r="0.738007" fill="white"/>
<circle cx="207.882" cy="217.712" r="0.738007" fill="white"/>
<circle cx="89.8007" cy="217.712" r="0.738007" fill="white"/>
<circle cx="111.941" cy="328.413" r="0.738007" fill="white"/>
<circle cx="222.642" cy="323.985" r="0.738007" fill="white"/>
<circle cx="116.369" cy="266.421" r="0.738007" fill="white"/>
<circle cx="193.122" cy="160.148" r="0.738007" fill="white"/>
<circle cx="318.583" cy="40.5904" r="0.738007" fill="white"/>
<circle cx="373.195" cy="93.7269" r="0.738007" fill="white"/>
<circle cx="219.69" cy="120.295" r="0.738007" fill="white"/>
<circle cx="35.1883" cy="93.7269" r="0.738007" fill="white"/>
<circle cx="139.985" cy="111.439" r="0.738007" fill="white"/>
<circle cx="292.015" cy="71.5867" r="0.738007" fill="white"/>
<circle cx="216.738" cy="226.568" r="0.738007" fill="white"/>
<circle cx="117.845" cy="363.838" r="0.738007" fill="white"/>
<circle cx="194.598" cy="301.845" r="0.738007" fill="white"/>
<circle cx="45.5204" cy="390.406" r="0.738007" fill="white"/>
<circle cx="141.461" cy="230.996" r="0.738007" fill="white"/>
<circle cx="150.317" cy="332.841" r="0.738007" fill="white"/>
<circle cx="283.159" cy="323.985" r="0.738007" fill="white"/>
<circle cx="129.653" cy="275.277" r="0.738007" fill="white"/>
<circle cx="10.096" cy="275.277" r="0.738007" fill="white"/>
<circle cx="204.93" cy="169.004" r="0.738007" fill="white"/>
<circle cx="325.963" cy="45.0185" r="0.738007" fill="white"/>
<circle cx="385.004" cy="111.439" r="0.738007" fill="white"/>
<circle cx="238.878" cy="169.004" r="0.738007" fill="white"/>
<circle cx="67.6604" cy="93.7269" r="0.738007" fill="white"/>
<circle cx="166.553" cy="200" r="0.738007" fill="white"/>
<circle cx="346.627" cy="230.996" r="0.738007" fill="white"/>
<circle cx="209.358" cy="31.7343" r="0.738007" fill="white"/>
<circle cx="280.207" cy="266.421" r="0.738007" fill="white"/>
<circle cx="131.129" cy="284.133" r="0.738007" fill="white"/>
<circle cx="165.078" cy="115.867" r="0.738007" fill="white"/>
<circle cx="323.011" cy="71.5867" r="0.738007" fill="white"/>
<circle cx="246.258" cy="230.996" r="0.738007" fill="white"/>
<circle cx="169.506" cy="266.421" r="0.738007" fill="white"/>
<circle cx="30.7601" cy="315.129" r="0.738007" fill="white"/>
<circle cx="269.875" cy="346.125" r="0.738007" fill="white"/>
<circle cx="311.203" cy="208.856" r="0.738007" fill="white"/>
<circle cx="386.48" cy="399.262" r="0.738007" fill="white"/>
<circle cx="221.166" cy="399.262" r="0.738007" fill="white"/>
<circle cx="191.646" cy="346.125" r="0.738007" fill="white"/>
<circle cx="374.672" cy="328.413" r="0.738007" fill="white"/>
<circle cx="324.487" cy="195.572" r="0.738007" fill="white"/>
<circle cx="32.2363" cy="266.421" r="0.738007" fill="white"/>
<circle cx="210.834" cy="275.277" r="0.738007" fill="white"/>
<circle cx="213.786" cy="363.838" r="0.738007" fill="white"/>
</svg>
